<svg width="500" height="687" viewBox="0 0 500 687" fill="none" xmlns="http://www.w3.org/2000/svg">
<path d="M162.5 0H150V14.3103H162.5V0Z" fill="white"/>
<path d="M175 0H162.5V14.3103H175V0Z" fill="white"/>
<path d="M187.5 0H175V14.3103H187.5V0Z" fill="white"/>
<path d="M200 0H187.5V14.3103H200V0Z" fill="white"/>
<path d="M212.5 0H200V14.3103H212.5V0Z" fill="white"/>
<path d="M225 0H212.5V14.3103H225V0Z" fill="white"/>
<path d="M237.5 0H225V14.3103H237.5V0Z" fill="white"/>
<path d="M250 0H237.5V14.3103H250V0Z" fill="white"/>
<path d="M262.5 0H250V14.3103H262.5V0Z" fill="white"/>
<path d="M275 0H262.5V14.3103H275V0Z" fill="white"/>
<path d="M287.5 0H275V14.3103H287.5V0Z" fill="white"/>
<path d="M300 0H287.5V14.3103H300V0Z" fill="white"/>
<path d="M312.5 0H300V14.3103H312.5V0Z" fill="white"/>
<path d="M325 0H312.5V14.3103H325V0Z" fill="white"/>
<path d="M337.5 0H325V14.3103H337.5V0Z" fill="white"/>
<path d="M350 0H337.5V14.3103H350V0Z" fill="white"/>
<path d="M137.5 14.3103H125V28.6207H137.5V14.3103Z" fill="white"/>
<path d="M150 14.3103H137.5V28.6207H150V14.3103Z" fill="white"/>
<path d="M162.5 14.3103H150V28.6207H162.5V14.3103Z" fill="white"/>
<path d="M175 14.3103H162.5V28.6207H175V14.3103Z" fill="white"/>
<path d="M187.5 14.3103H175V28.6207H187.5V14.3103Z" fill="white"/>
<path d="M200 14.3103H187.5V28.6207H200V14.3103Z" fill="white"/>
<path d="M212.5 14.3103H200V28.6207H212.5V14.3103Z" fill="white"/>
<path d="M225 14.3103H212.5V28.6207H225V14.3103Z" fill="white"/>
<path d="M237.5 14.3103H225V28.6207H237.5V14.3103Z" fill="white"/>
<path d="M250 14.3103H237.5V28.6207H250V14.3103Z" fill="white"/>
<path d="M262.5 14.3103H250V28.6207H262.5V14.3103Z" fill="white"/>
<path d="M275 14.3103H262.5V28.6207H275V14.3103Z" fill="white"/>
<path d="M287.5 14.3103H275V28.6207H287.5V14.3103Z" fill="white"/>
<path d="M300 14.3103H287.5V28.6207H300V14.3103Z" fill="white"/>
<path d="M312.5 14.3103H300V28.6207H312.5V14.3103Z" fill="white"/>
<path d="M325 14.3103H312.5V28.6207H325V14.3103Z" fill="white"/>
<path d="M337.5 14.3103H325V28.6207H337.5V14.3103Z" fill="white"/>
<path d="M350 14.3103H337.5V28.6207H350V14.3103Z" fill="white"/>
<path d="M362.5 14.3103H350V28.6207H362.5V14.3103Z" fill="white"/>
<path d="M375 14.3103H362.5V28.6207H375V14.3103Z" fill="white"/>
<path d="M112.5 28.6207H100V42.931H112.5V28.6207Z" fill="white"/>
<path d="M125 28.6207H112.5V42.931H125V28.6207Z" fill="white"/>
<path d="M137.5 28.6207H125V42.931H137.5V28.6207Z" fill="white"/>
<path d="M150 28.6207H137.5V42.931H150V28.6207Z" fill="white"/>
<path d="M162.5 28.6207H150V42.931H162.5V28.6207Z" fill="white"/>
<path d="M175 28.6207H162.5V42.931H175V28.6207Z" fill="white"/>
<path d="M187.5 28.6207H175V42.931H187.5V28.6207Z" fill="white"/>
<path d="M200 28.6207H187.5V42.931H200V28.6207Z" fill="white"/>
<path d="M212.5 28.6207H200V42.931H212.5V28.6207Z" fill="white"/>
<path d="M225 28.6207H212.5V42.931H225V28.6207Z" fill="white"/>
<path d="M237.5 28.6207H225V42.931H237.5V28.6207Z" fill="white"/>
<path d="M250 28.6207H237.5V42.931H250V28.6207Z" fill="white"/>
<path d="M262.5 28.6207H250V42.931H262.5V28.6207Z" fill="white"/>
<path d="M275 28.6207H262.5V42.931H275V28.6207Z" fill="white"/>
<path d="M287.5 28.6207H275V42.931H287.5V28.6207Z" fill="white"/>
<path d="M300 28.6207H287.5V42.931H300V28.6207Z" fill="white"/>
<path d="M312.5 28.6207H300V42.931H312.5V28.6207Z" fill="white"/>
<path d="M325 28.6207H312.5V42.931H325V28.6207Z" fill="white"/>
<path d="M337.5 28.6207H325V42.931H337.5V28.6207Z" fill="white"/>
<path d="M350 28.6207H337.5V42.931H350V28.6207Z" fill="white"/>
<path d="M362.5 28.6207H350V42.931H362.5V28.6207Z" fill="white"/>
<path d="M375 28.6207H362.5V42.931H375V28.6207Z" fill="white"/>
<path d="M387.5 28.6207H375V42.931H387.5V28.6207Z" fill="white"/>
<path d="M400 28.6207H387.5V42.931H400V28.6207Z" fill="white"/>
<path d="M100 42.931H87.5V57.2414H100V42.931Z" fill="white"/>
<path d="M112.5 42.931H100V57.2414H112.5V42.931Z" fill="white"/>
<path d="M125 42.931H112.5V57.2414H125V42.931Z" fill="white"/>
<path d="M137.5 42.931H125V57.2414H137.5V42.931Z" fill="white"/>
<path d="M150 42.931H137.5V57.2414H150V42.931Z" fill="white"/>
<path d="M162.5 42.931H150V57.2414H162.5V42.931Z" fill="white"/>
<path d="M175 42.931H162.5V57.2414H175V42.931Z" fill="white"/>
<path d="M187.5 42.931H175V57.2414H187.5V42.931Z" fill="white"/>
<path d="M200 42.931H187.5V57.2414H200V42.931Z" fill="white"/>
<path d="M212.5 42.931H200V57.2414H212.5V42.931Z" fill="white"/>
<path d="M225 42.931H212.5V57.2414H225V42.931Z" fill="white"/>
<path d="M237.5 42.931H225V57.2414H237.5V42.931Z" fill="white"/>
<path d="M250 42.931H237.5V57.2414H250V42.931Z" fill="white"/>
<path d="M262.5 42.931H250V57.2414H262.5V42.931Z" fill="white"/>
<path d="M275 42.931H262.5V57.2414H275V42.931Z" fill="white"/>
<path d="M287.5 42.931H275V57.2414H287.5V42.931Z" fill="white"/>
<path d="M300 42.931H287.5V57.2414H300V42.931Z" fill="white"/>
<path d="M312.5 42.931H300V57.2414H312.5V42.931Z" fill="white"/>
<path d="M325 42.931H312.5V57.2414H325V42.931Z" fill="white"/>
<path d="M337.5 42.931H325V57.2414H337.5V42.931Z" fill="white"/>
<path d="M350 42.931H337.5V57.2414H350V42.931Z" fill="white"/>
<path d="M362.5 42.931H350V57.2414H362.5V42.931Z" fill="white"/>
<path d="M375 42.931H362.5V57.2414H375V42.931Z" fill="white"/>
<path d="M387.5 42.931H375V57.2414H387.5V42.931Z" fill="white"/>
<path d="M400 42.931H387.5V57.2414H400V42.931Z" fill="white"/>
<path d="M412.5 42.931H400V57.2414H412.5V42.931Z" fill="white"/>
<path d="M87.5 57.2414H75V71.5517H87.5V57.2414Z" fill="white"/>
<path d="M100 57.2414H87.5V71.5517H100V57.2414Z" fill="white"/>
<path d="M112.5 57.2414H100V71.5517H112.5V57.2414Z" fill="white"/>
<path d="M125 57.2414H112.5V71.5517H125V57.2414Z" fill="white"/>
<path d="M137.5 57.2414H125V71.5517H137.5V57.2414Z" fill="white"/>
<path d="M150 57.2414H137.5V71.5517H150V57.2414Z" fill="white"/>
<path d="M162.5 57.2414H150V71.5517H162.5V57.2414Z" fill="white"/>
<path d="M175 57.2414H162.5V71.5517H175V57.2414Z" fill="white"/>
<path d="M187.5 57.2414H175V71.5517H187.5V57.2414Z" fill="white"/>
<path d="M200 57.2414H187.5V71.5517H200V57.2414Z" fill="white"/>
<path d="M212.5 57.2414H200V71.5517H212.5V57.2414Z" fill="white"/>
<path d="M225 57.2414H212.5V71.5517H225V57.2414Z" fill="white"/>
<path d="M237.5 57.2414H225V71.5517H237.5V57.2414Z" fill="white"/>
<path d="M250 57.2414H237.5V71.5517H250V57.2414Z" fill="white"/>
<path d="M262.5 57.2414H250V71.5517H262.5V57.2414Z" fill="white"/>
<path d="M275 57.2414H262.5V71.5517H275V57.2414Z" fill="white"/>
<path d="M287.5 57.2414H275V71.5517H287.5V57.2414Z" fill="white"/>
<path d="M300 57.2414H287.5V71.5517H300V57.2414Z" fill="white"/>
<path d="M312.5 57.2414H300V71.5517H312.5V57.2414Z" fill="white"/>
<path d="M325 57.2414H312.5V71.5517H325V57.2414Z" fill="white"/>
<path d="M337.5 57.2414H325V71.5517H337.5V57.2414Z" fill="white"/>
<path d="M350 57.2414H337.5V71.5517H350V57.2414Z" fill="white"/>
<path d="M362.5 57.2414H350V71.5517H362.5V57.2414Z" fill="white"/>
<path d="M375 57.2414H362.5V71.5517H375V57.2414Z" fill="white"/>
<path d="M387.5 57.2414H375V71.5517H387.5V57.2414Z" fill="white"/>
<path d="M400 57.2414H387.5V71.5517H400V57.2414Z" fill="white"/>
<path d="M412.5 57.2414H400V71.5517H412.5V57.2414Z" fill="white"/>
<path d="M425 57.2414H412.5V71.5517H425V57.2414Z" fill="white"/>
<path d="M75 71.5517H62.5V85.8621H75V71.5517Z" fill="white"/>
<path d="M87.5 71.5517H75V85.8621H87.5V71.5517Z" fill="white"/>
<path d="M100 71.5517H87.5V85.8621H100V71.5517Z" fill="white"/>
<path d="M112.5 71.5517H100V85.8621H112.5V71.5517Z" fill="white"/>
<path d="M125 71.5517H112.5V85.8621H125V71.5517Z" fill="white"/>
<path d="M137.5 71.5517H125V85.8621H137.5V71.5517Z" fill="white"/>
<path d="M150 71.5517H137.5V85.8621H150V71.5517Z" fill="white"/>
<path d="M162.5 71.5517H150V85.8621H162.5V71.5517Z" fill="white"/>
<path d="M175 71.5517H162.5V85.8621H175V71.5517Z" fill="white"/>
<path d="M187.5 71.5517H175V85.8621H187.5V71.5517Z" fill="white"/>
<path d="M200 71.5517H187.5V85.8621H200V71.5517Z" fill="white"/>
<path d="M212.5 71.5517H200V85.8621H212.5V71.5517Z" fill="white"/>
<path d="M225 71.5517H212.5V85.8621H225V71.5517Z" fill="white"/>
<path d="M237.5 71.5517H225V85.8621H237.5V71.5517Z" fill="white"/>
<path d="M250 71.5517H237.5V85.8621H250V71.5517Z" fill="white"/>
<path d="M262.5 71.5517H250V85.8621H262.5V71.5517Z" fill="white"/>
<path d="M275 71.5517H262.5V85.8621H275V71.5517Z" fill="white"/>
<path d="M287.5 71.5517H275V85.8621H287.5V71.5517Z" fill="white"/>
<path d="M300 71.5517H287.5V85.8621H300V71.5517Z" fill="white"/>
<path d="M312.5 71.5517H300V85.8621H312.5V71.5517Z" fill="white"/>
<path d="M325 71.5517H312.5V85.8621H325V71.5517Z" fill="white"/>
<path d="M337.5 71.5517H325V85.8621H337.5V71.5517Z" fill="white"/>
<path d="M350 71.5517H337.5V85.8621H350V71.5517Z" fill="white"/>
<path d="M362.5 71.5517H350V85.8621H362.5V71.5517Z" fill="white"/>
<path d="M375 71.5517H362.5V85.8621H375V71.5517Z" fill="white"/>
<path d="M387.5 71.5517H375V85.8621H387.5V71.5517Z" fill="white"/>
<path d="M400 71.5517H387.5V85.8621H400V71.5517Z" fill="white"/>
<path d="M412.5 71.5517H400V85.8621H412.5V71.5517Z" fill="white"/>
<path d="M425 71.5517H412.5V85.8621H425V71.5517Z" fill="white"/>
<path d="M437.5 71.5517H425V85.8621H437.5V71.5517Z" fill="white"/>
<path d="M62.5 85.8621H50V100.172H62.5V85.8621Z" fill="white"/>
<path d="M75 85.8621H62.5V100.172H75V85.8621Z" fill="white"/>
<path d="M87.5 85.8621H75V100.172H87.5V85.8621Z" fill="white"/>
<path d="M100 85.8621H87.5V100.172H100V85.8621Z" fill="white"/>
<path d="M112.5 85.8621H100V100.172H112.5V85.8621Z" fill="white"/>
<path d="M125 85.8621H112.5V100.172H125V85.8621Z" fill="white"/>
<path d="M137.5 85.8621H125V100.172H137.5V85.8621Z" fill="white"/>
<path d="M150 85.8621H137.5V100.172H150V85.8621Z" fill="white"/>
<path d="M162.5 85.8621H150V100.172H162.5V85.8621Z" fill="white"/>
<path d="M175 85.8621H162.5V100.172H175V85.8621Z" fill="white"/>
<path d="M187.5 85.8621H175V100.172H187.5V85.8621Z" fill="white"/>
<path d="M200 85.8621H187.5V100.172H200V85.8621Z" fill="white"/>
<path d="M212.5 85.8621H200V100.172H212.5V85.8621Z" fill="white"/>
<path d="M225 85.8621H212.5V100.172H225V85.8621Z" fill="white"/>
<path d="M237.5 85.8621H225V100.172H237.5V85.8621Z" fill="white"/>
<path d="M250 85.8621H237.5V100.172H250V85.8621Z" fill="white"/>
<path d="M262.5 85.8621H250V100.172H262.5V85.8621Z" fill="white"/>
<path d="M275 85.8621H262.5V100.172H275V85.8621Z" fill="white"/>
<path d="M287.5 85.8621H275V100.172H287.5V85.8621Z" fill="white"/>
<path d="M300 85.8621H287.5V100.172H300V85.8621Z" fill="white"/>
<path d="M312.5 85.8621H300V100.172H312.5V85.8621Z" fill="white"/>
<path d="M325 85.8621H312.5V100.172H325V85.8621Z" fill="white"/>
<path d="M337.5 85.8621H325V100.172H337.5V85.8621Z" fill="white"/>
<path d="M350 85.8621H337.5V100.172H350V85.8621Z" fill="white"/>
<path d="M362.5 85.8621H350V100.172H362.5V85.8621Z" fill="white"/>
<path d="M375 85.8621H362.5V100.172H375V85.8621Z" fill="white"/>
<path d="M387.5 85.8621H375V100.172H387.5V85.8621Z" fill="white"/>
<path d="M400 85.8621H387.5V100.172H400V85.8621Z" fill="white"/>
<path d="M412.5 85.8621H400V100.172H412.5V85.8621Z" fill="white"/>
<path d="M425 85.8621H412.5V100.172H425V85.8621Z" fill="white"/>
<path d="M437.5 85.8621H425V100.172H437.5V85.8621Z" fill="white"/>
<path d="M450 85.8621H437.5V100.172H450V85.8621Z" fill="white"/>
<path d="M50 100.172H37.5V114.483H50V100.172Z" fill="white"/>
<path d="M62.5 100.172H50V114.483H62.5V100.172Z" fill="white"/>
<path d="M75 100.172H62.5V114.483H75V100.172Z" fill="white"/>
<path d="M87.5 100.172H75V114.483H87.5V100.172Z" fill="white"/>
<path d="M100 100.172H87.5V114.483H100V100.172Z" fill="white"/>
<path d="M112.5 100.172H100V114.483H112.5V100.172Z" fill="white"/>
<path d="M125 100.172H112.5V114.483H125V100.172Z" fill="white"/>
<path d="M137.5 100.172H125V114.483H137.5V100.172Z" fill="white"/>
<path d="M150 100.172H137.5V114.483H150V100.172Z" fill="white"/>
<path d="M162.5 100.172H150V114.483H162.5V100.172Z" fill="white"/>
<path d="M175 100.172H162.5V114.483H175V100.172Z" fill="white"/>
<path d="M187.5 100.172H175V114.483H187.5V100.172Z" fill="white"/>
<path d="M200 100.172H187.5V114.483H200V100.172Z" fill="white"/>
<path d="M212.5 100.172H200V114.483H212.5V100.172Z" fill="white"/>
<path d="M225 100.172H212.5V114.483H225V100.172Z" fill="white"/>
<path d="M237.5 100.172H225V114.483H237.5V100.172Z" fill="white"/>
<path d="M250 100.172H237.5V114.483H250V100.172Z" fill="white"/>
<path d="M262.5 100.172H250V114.483H262.5V100.172Z" fill="white"/>
<path d="M275 100.172H262.5V114.483H275V100.172Z" fill="white"/>
<path d="M287.5 100.172H275V114.483H287.5V100.172Z" fill="white"/>
<path d="M300 100.172H287.5V114.483H300V100.172Z" fill="white"/>
<path d="M312.5 100.172H300V114.483H312.5V100.172Z" fill="white"/>
<path d="M325 100.172H312.5V114.483H325V100.172Z" fill="white"/>
<path d="M337.5 100.172H325V114.483H337.5V100.172Z" fill="white"/>
<path d="M350 100.172H337.5V114.483H350V100.172Z" fill="white"/>
<path d="M362.5 100.172H350V114.483H362.5V100.172Z" fill="white"/>
<path d="M375 100.172H362.5V114.483H375V100.172Z" fill="white"/>
<path d="M387.5 100.172H375V114.483H387.5V100.172Z" fill="white"/>
<path d="M400 100.172H387.5V114.483H400V100.172Z" fill="white"/>
<path d="M412.5 100.172H400V114.483H412.5V100.172Z" fill="white"/>
<path d="M425 100.172H412.5V114.483H425V100.172Z" fill="white"/>
<path d="M437.5 100.172H425V114.483H437.5V100.172Z" fill="white"/>
<path d="M450 100.172H437.5V114.483H450V100.172Z" fill="white"/>
<path d="M462.5 100.172H450V114.483H462.5V100.172Z" fill="white"/>
<path d="M37.5 114.483H25V128.793H37.5V114.483Z" fill="white"/>
<path d="M50 114.483H37.5V128.793H50V114.483Z" fill="white"/>
<path d="M62.5 114.483H50V128.793H62.5V114.483Z" fill="white"/>
<path d="M75 114.483H62.5V128.793H75V114.483Z" fill="white"/>
<path d="M87.5 114.483H75V128.793H87.5V114.483Z" fill="white"/>
<path d="M100 114.483H87.5V128.793H100V114.483Z" fill="white"/>
<path d="M112.5 114.483H100V128.793H112.5V114.483Z" fill="white"/>
<path d="M125 114.483H112.5V128.793H125V114.483Z" fill="white"/>
<path d="M137.5 114.483H125V128.793H137.5V114.483Z" fill="white"/>
<path d="M150 114.483H137.5V128.793H150V114.483Z" fill="white"/>
<path d="M162.5 114.483H150V128.793H162.5V114.483Z" fill="white"/>
<path d="M175 114.483H162.5V128.793H175V114.483Z" fill="white"/>
<path d="M187.5 114.483H175V128.793H187.5V114.483Z" fill="white"/>
<path d="M200 114.483H187.5V128.793H200V114.483Z" fill="white"/>
<path d="M212.5 114.483H200V128.793H212.5V114.483Z" fill="white"/>
<path d="M225 114.483H212.5V128.793H225V114.483Z" fill="white"/>
<path d="M237.5 114.483H225V128.793H237.5V114.483Z" fill="white"/>
<path d="M250 114.483H237.5V128.793H250V114.483Z" fill="white"/>
<path d="M262.5 114.483H250V128.793H262.5V114.483Z" fill="white"/>
<path d="M275 114.483H262.5V128.793H275V114.483Z" fill="white"/>
<path d="M287.5 114.483H275V128.793H287.5V114.483Z" fill="white"/>
<path d="M300 114.483H287.5V128.793H300V114.483Z" fill="white"/>
<path d="M312.5 114.483H300V128.793H312.5V114.483Z" fill="white"/>
<path d="M325 114.483H312.5V128.793H325V114.483Z" fill="white"/>
<path d="M337.5 114.483H325V128.793H337.5V114.483Z" fill="white"/>
<path d="M350 114.483H337.5V128.793H350V114.483Z" fill="white"/>
<path d="M362.5 114.483H350V128.793H362.5V114.483Z" fill="white"/>
<path d="M375 114.483H362.5V128.793H375V114.483Z" fill="white"/>
<path d="M387.5 114.483H375V128.793H387.5V114.483Z" fill="white"/>
<path d="M400 114.483H387.5V128.793H400V114.483Z" fill="white"/>
<path d="M412.5 114.483H400V128.793H412.5V114.483Z" fill="white"/>
<path d="M425 114.483H412.5V128.793H425V114.483Z" fill="white"/>
<path d="M437.5 114.483H425V128.793H437.5V114.483Z" fill="white"/>
<path d="M450 114.483H437.5V128.793H450V114.483Z" fill="white"/>
<path d="M462.5 114.483H450V128.793H462.5V114.483Z" fill="white"/>
<path d="M475 114.483H462.5V128.793H475V114.483Z" fill="white"/>
<path d="M37.5 128.793H25V143.103H37.5V128.793Z" fill="white"/>
<path d="M50 128.793H37.5V143.103H50V128.793Z" fill="white"/>
<path d="M62.5 128.793H50V143.103H62.5V128.793Z" fill="white"/>
<path d="M75 128.793H62.5V143.103H75V128.793Z" fill="white"/>
<path d="M87.5 128.793H75V143.103H87.5V128.793Z" fill="white"/>
<path d="M100 128.793H87.5V143.103H100V128.793Z" fill="white"/>
<path d="M112.5 128.793H100V143.103H112.5V128.793Z" fill="white"/>
<path d="M125 128.793H112.5V143.103H125V128.793Z" fill="white"/>
<path d="M137.5 128.793H125V143.103H137.5V128.793Z" fill="white"/>
<path d="M150 128.793H137.5V143.103H150V128.793Z" fill="white"/>
<path d="M162.5 128.793H150V143.103H162.5V128.793Z" fill="white"/>
<path d="M175 128.793H162.5V143.103H175V128.793Z" fill="white"/>
<path d="M187.5 128.793H175V143.103H187.5V128.793Z" fill="white"/>
<path d="M200 128.793H187.5V143.103H200V128.793Z" fill="white"/>
<path d="M212.5 128.793H200V143.103H212.5V128.793Z" fill="white"/>
<path d="M225 128.793H212.5V143.103H225V128.793Z" fill="white"/>
<path d="M237.5 128.793H225V143.103H237.5V128.793Z" fill="white"/>
<path d="M250 128.793H237.5V143.103H250V128.793Z" fill="white"/>
<path d="M262.5 128.793H250V143.103H262.5V128.793Z" fill="white"/>
<path d="M275 128.793H262.5V143.103H275V128.793Z" fill="white"/>
<path d="M287.5 128.793H275V143.103H287.5V128.793Z" fill="white"/>
<path d="M300 128.793H287.5V143.103H300V128.793Z" fill="white"/>
<path d="M312.5 128.793H300V143.103H312.5V128.793Z" fill="white"/>
<path d="M325 128.793H312.5V143.103H325V128.793Z" fill="white"/>
<path d="M337.5 128.793H325V143.103H337.5V128.793Z" fill="white"/>
<path d="M350 128.793H337.5V143.103H350V128.793Z" fill="white"/>
<path d="M362.5 128.793H350V143.103H362.5V128.793Z" fill="white"/>
<path d="M375 128.793H362.5V143.103H375V128.793Z" fill="white"/>
<path d="M387.5 128.793H375V143.103H387.5V128.793Z" fill="white"/>
<path d="M400 128.793H387.5V143.103H400V128.793Z" fill="white"/>
<path d="M412.5 128.793H400V143.103H412.5V128.793Z" fill="white"/>
<path d="M425 128.793H412.5V143.103H425V128.793Z" fill="white"/>
<path d="M437.5 128.793H425V143.103H437.5V128.793Z" fill="white"/>
<path d="M450 128.793H437.5V143.103H450V128.793Z" fill="white"/>
<path d="M462.5 128.793H450V143.103H462.5V128.793Z" fill="white"/>
<path d="M475 128.793H462.5V143.103H475V128.793Z" fill="white"/>
<path d="M25 143.103H12.5V157.414H25V143.103Z" fill="white"/>
<path d="M37.5 143.103H25V157.414H37.5V143.103Z" fill="white"/>
<path d="M50 143.103H37.5V157.414H50V143.103Z" fill="white"/>
<path d="M62.5 143.103H50V157.414H62.5V143.103Z" fill="white"/>
<path d="M75 143.103H62.5V157.414H75V143.103Z" fill="white"/>
<path d="M87.5 143.103H75V157.414H87.5V143.103Z" fill="white"/>
<path d="M100 143.103H87.5V157.414H100V143.103Z" fill="white"/>
<path d="M112.5 143.103H100V157.414H112.5V143.103Z" fill="white"/>
<path d="M125 143.103H112.5V157.414H125V143.103Z" fill="white"/>
<path d="M137.5 143.103H125V157.414H137.5V143.103Z" fill="white"/>
<path d="M150 143.103H137.5V157.414H150V143.103Z" fill="white"/>
<path d="M162.5 143.103H150V157.414H162.5V143.103Z" fill="white"/>
<path d="M175 143.103H162.5V157.414H175V143.103Z" fill="white"/>
<path d="M187.5 143.103H175V157.414H187.5V143.103Z" fill="white"/>
<path d="M200 143.103H187.5V157.414H200V143.103Z" fill="white"/>
<path d="M212.5 143.103H200V157.414H212.5V143.103Z" fill="white"/>
<path d="M225 143.103H212.5V157.414H225V143.103Z" fill="white"/>
<path d="M237.5 143.103H225V157.414H237.5V143.103Z" fill="white"/>
<path d="M250 143.103H237.5V157.414H250V143.103Z" fill="white"/>
<path d="M262.5 143.103H250V157.414H262.5V143.103Z" fill="white"/>
<path d="M275 143.103H262.5V157.414H275V143.103Z" fill="white"/>
<path d="M287.5 143.103H275V157.414H287.5V143.103Z" fill="white"/>
<path d="M300 143.103H287.5V157.414H300V143.103Z" fill="white"/>
<path d="M312.5 143.103H300V157.414H312.5V143.103Z" fill="white"/>
<path d="M325 143.103H312.5V157.414H325V143.103Z" fill="white"/>
<path d="M337.5 143.103H325V157.414H337.5V143.103Z" fill="white"/>
<path d="M350 143.103H337.5V157.414H350V143.103Z" fill="white"/>
<path d="M362.5 143.103H350V157.414H362.5V143.103Z" fill="white"/>
<path d="M375 143.103H362.5V157.414H375V143.103Z" fill="white"/>
<path d="M387.5 143.103H375V157.414H387.5V143.103Z" fill="white"/>
<path d="M400 143.103H387.5V157.414H400V143.103Z" fill="white"/>
<path d="M412.5 143.103H400V157.414H412.5V143.103Z" fill="white"/>
<path d="M425 143.103H412.5V157.414H425V143.103Z" fill="white"/>
<path d="M437.5 143.103H425V157.414H437.5V143.103Z" fill="white"/>
<path d="M450 143.103H437.5V157.414H450V143.103Z" fill="white"/>
<path d="M462.5 143.103H450V157.414H462.5V143.103Z" fill="white"/>
<path d="M475 143.103H462.5V157.414H475V143.103Z" fill="white"/>
<path d="M487.5 143.103H475V157.414H487.5V143.103Z" fill="white"/>
<path d="M25 157.414H12.5V171.724H25V157.414Z" fill="white"/>
<path d="M37.5 157.414H25V171.724H37.5V157.414Z" fill="white"/>
<path d="M50 157.414H37.5V171.724H50V157.414Z" fill="white"/>
<path d="M62.5 157.414H50V171.724H62.5V157.414Z" fill="white"/>
<path d="M75 157.414H62.5V171.724H75V157.414Z" fill="white"/>
<path d="M87.5 157.414H75V171.724H87.5V157.414Z" fill="white"/>
<path d="M100 157.414H87.5V171.724H100V157.414Z" fill="white"/>
<path d="M112.5 157.414H100V171.724H112.5V157.414Z" fill="white"/>
<path d="M125 157.414H112.5V171.724H125V157.414Z" fill="white"/>
<path d="M137.5 157.414H125V171.724H137.5V157.414Z" fill="white"/>
<path d="M150 157.414H137.5V171.724H150V157.414Z" fill="white"/>
<path d="M162.5 157.414H150V171.724H162.5V157.414Z" fill="white"/>
<path d="M175 157.414H162.5V171.724H175V157.414Z" fill="white"/>
<path d="M187.5 157.414H175V171.724H187.5V157.414Z" fill="white"/>
<path d="M200 157.414H187.5V171.724H200V157.414Z" fill="white"/>
<path d="M212.5 157.414H200V171.724H212.5V157.414Z" fill="white"/>
<path d="M225 157.414H212.5V171.724H225V157.414Z" fill="white"/>
<path d="M237.5 157.414H225V171.724H237.5V157.414Z" fill="white"/>
<path d="M250 157.414H237.5V171.724H250V157.414Z" fill="white"/>
<path d="M262.5 157.414H250V171.724H262.5V157.414Z" fill="white"/>
<path d="M275 157.414H262.5V171.724H275V157.414Z" fill="white"/>
<path d="M287.5 157.414H275V171.724H287.5V157.414Z" fill="white"/>
<path d="M300 157.414H287.5V171.724H300V157.414Z" fill="white"/>
<path d="M312.5 157.414H300V171.724H312.5V157.414Z" fill="white"/>
<path d="M325 157.414H312.5V171.724H325V157.414Z" fill="white"/>
<path d="M337.5 157.414H325V171.724H337.5V157.414Z" fill="white"/>
<path d="M350 157.414H337.5V171.724H350V157.414Z" fill="white"/>
<path d="M362.5 157.414H350V171.724H362.5V157.414Z" fill="white"/>
<path d="M375 157.414H362.5V171.724H375V157.414Z" fill="white"/>
<path d="M387.5 157.414H375V171.724H387.5V157.414Z" fill="white"/>
<path d="M400 157.414H387.5V171.724H400V157.414Z" fill="white"/>
<path d="M412.5 157.414H400V171.724H412.5V157.414Z" fill="white"/>
<path d="M425 157.414H412.5V171.724H425V157.414Z" fill="white"/>
<path d="M437.5 157.414H425V171.724H437.5V157.414Z" fill="white"/>
<path d="M450 157.414H437.5V171.724H450V157.414Z" fill="white"/>
<path d="M462.5 157.414H450V171.724H462.5V157.414Z" fill="white"/>
<path d="M475 157.414H462.5V171.724H475V157.414Z" fill="white"/>
<path d="M487.5 157.414H475V171.724H487.5V157.414Z" fill="white"/>
<path d="M25 171.724H12.5V186.034H25V171.724Z" fill="white"/>
<path d="M37.5 171.724H25V186.034H37.5V171.724Z" fill="white"/>
<path d="M50 171.724H37.5V186.034H50V171.724Z" fill="white"/>
<path d="M62.5 171.724H50V186.034H62.5V171.724Z" fill="white"/>
<path d="M75 171.724H62.5V186.034H75V171.724Z" fill="white"/>
<path d="M87.5 171.724H75V186.034H87.5V171.724Z" fill="white"/>
<path d="M100 171.724H87.5V186.034H100V171.724Z" fill="white"/>
<path d="M112.5 171.724H100V186.034H112.5V171.724Z" fill="white"/>
<path d="M400 171.724H387.5V186.034H400V171.724Z" fill="white"/>
<path d="M412.5 171.724H400V186.034H412.5V171.724Z" fill="white"/>
<path d="M425 171.724H412.5V186.034H425V171.724Z" fill="white"/>
<path d="M437.5 171.724H425V186.034H437.5V171.724Z" fill="white"/>
<path d="M450 171.724H437.5V186.034H450V171.724Z" fill="white"/>
<path d="M462.5 171.724H450V186.034H462.5V171.724Z" fill="white"/>
<path d="M475 171.724H462.5V186.034H475V171.724Z" fill="white"/>
<path d="M487.5 171.724H475V186.034H487.5V171.724Z" fill="white"/>
<path d="M12.5 186.034H0V200.345H12.5V186.034Z" fill="white"/>
<path d="M25 186.034H12.5V200.345H25V186.034Z" fill="white"/>
<path d="M37.5 186.034H25V200.345H37.5V186.034Z" fill="white"/>
<path d="M50 186.034H37.5V200.345H50V186.034Z" fill="white"/>
<path d="M62.5 186.034H50V200.345H62.5V186.034Z" fill="white"/>
<path d="M75 186.034H62.5V200.345H75V186.034Z" fill="white"/>
<path d="M87.5 186.034H75V200.345H87.5V186.034Z" fill="white"/>
<path d="M100 186.034H87.5V200.345H100V186.034Z" fill="white"/>
<path d="M412.5 186.034H400V200.345H412.5V186.034Z" fill="white"/>
<path d="M425 186.034H412.5V200.345H425V186.034Z" fill="white"/>
<path d="M437.5 186.034H425V200.345H437.5V186.034Z" fill="white"/>
<path d="M450 186.034H437.5V200.345H450V186.034Z" fill="white"/>
<path d="M462.5 186.034H450V200.345H462.5V186.034Z" fill="white"/>
<path d="M475 186.034H462.5V200.345H475V186.034Z" fill="white"/>
<path d="M487.5 186.034H475V200.345H487.5V186.034Z" fill="white"/>
<path d="M500 186.034H487.5V200.345H500V186.034Z" fill="white"/>
<path d="M12.5 200.345H0V214.655H12.5V200.345Z" fill="white"/>
<path d="M25 200.345H12.5V214.655H25V200.345Z" fill="white"/>
<path d="M37.5 200.345H25V214.655H37.5V200.345Z" fill="white"/>
<path d="M50 200.345H37.5V214.655H50V200.345Z" fill="white"/>
<path d="M62.5 200.345H50V214.655H62.5V200.345Z" fill="white"/>
<path d="M75 200.345H62.5V214.655H75V200.345Z" fill="white"/>
<path d="M87.5 200.345H75V214.655H87.5V200.345Z" fill="white"/>
<path d="M100 200.345H87.5V214.655H100V200.345Z" fill="white"/>
<path d="M412.5 200.345H400V214.655H412.5V200.345Z" fill="white"/>
<path d="M425 200.345H412.5V214.655H425V200.345Z" fill="white"/>
<path d="M437.5 200.345H425V214.655H437.5V200.345Z" fill="white"/>
<path d="M450 200.345H437.5V214.655H450V200.345Z" fill="white"/>
<path d="M462.5 200.345H450V214.655H462.5V200.345Z" fill="white"/>
<path d="M475 200.345H462.5V214.655H475V200.345Z" fill="white"/>
<path d="M487.5 200.345H475V214.655H487.5V200.345Z" fill="white"/>
<path d="M500 200.345H487.5V214.655H500V200.345Z" fill="white"/>
<path d="M12.5 214.655H0V228.965H12.5V214.655Z" fill="white"/>
<path d="M25 214.655H12.5V228.965H25V214.655Z" fill="white"/>
<path d="M37.5 214.655H25V228.965H37.5V214.655Z" fill="white"/>
<path d="M50 214.655H37.5V228.965H50V214.655Z" fill="white"/>
<path d="M62.5 214.655H50V228.965H62.5V214.655Z" fill="white"/>
<path d="M75 214.655H62.5V228.965H75V214.655Z" fill="white"/>
<path d="M87.5 214.655H75V228.965H87.5V214.655Z" fill="white"/>
<path d="M425 214.655H412.5V228.965H425V214.655Z" fill="white"/>
<path d="M437.5 214.655H425V228.965H437.5V214.655Z" fill="white"/>
<path d="M450 214.655H437.5V228.965H450V214.655Z" fill="white"/>
<path d="M462.5 214.655H450V228.965H462.5V214.655Z" fill="white"/>
<path d="M475 214.655H462.5V228.965H475V214.655Z" fill="white"/>
<path d="M487.5 214.655H475V228.965H487.5V214.655Z" fill="white"/>
<path d="M500 214.655H487.5V228.965H500V214.655Z" fill="white"/>
<path d="M12.5 228.966H0V243.276H12.5V228.966Z" fill="white"/>
<path d="M25 228.966H12.5V243.276H25V228.966Z" fill="white"/>
<path d="M37.5 228.966H25V243.276H37.5V228.966Z" fill="white"/>
<path d="M50 228.966H37.5V243.276H50V228.966Z" fill="white"/>
<path d="M62.5 228.966H50V243.276H62.5V228.966Z" fill="white"/>
<path d="M75 228.966H62.5V243.276H75V228.966Z" fill="white"/>
<path d="M87.5 228.966H75V243.276H87.5V228.966Z" fill="white"/>
<path d="M425 228.966H412.5V243.276H425V228.966Z" fill="white"/>
<path d="M437.5 228.966H425V243.276H437.5V228.966Z" fill="white"/>
<path d="M450 228.966H437.5V243.276H450V228.966Z" fill="white"/>
<path d="M462.5 228.966H450V243.276H462.5V228.966Z" fill="white"/>
<path d="M475 228.966H462.5V243.276H475V228.966Z" fill="white"/>
<path d="M487.5 228.966H475V243.276H487.5V228.966Z" fill="white"/>
<path d="M500 228.966H487.5V243.276H500V228.966Z" fill="white"/>
<path d="M12.5 243.276H0V257.586H12.5V243.276Z" fill="white"/>
<path d="M25 243.276H12.5V257.586H25V243.276Z" fill="white"/>
<path d="M37.5 243.276H25V257.586H37.5V243.276Z" fill="white"/>
<path d="M50 243.276H37.5V257.586H50V243.276Z" fill="white"/>
<path d="M62.5 243.276H50V257.586H62.5V243.276Z" fill="white"/>
<path d="M75 243.276H62.5V257.586H75V243.276Z" fill="white"/>
<path d="M87.5 243.276H75V257.586H87.5V243.276Z" fill="white"/>
<path d="M425 243.276H412.5V257.586H425V243.276Z" fill="white"/>
<path d="M437.5 243.276H425V257.586H437.5V243.276Z" fill="white"/>
<path d="M450 243.276H437.5V257.586H450V243.276Z" fill="white"/>
<path d="M462.5 243.276H450V257.586H462.5V243.276Z" fill="white"/>
<path d="M475 243.276H462.5V257.586H475V243.276Z" fill="white"/>
<path d="M487.5 243.276H475V257.586H487.5V243.276Z" fill="white"/>
<path d="M500 243.276H487.5V257.586H500V243.276Z" fill="white"/>
<path d="M12.5 257.586H0V271.897H12.5V257.586Z" fill="white"/>
<path d="M25 257.586H12.5V271.897H25V257.586Z" fill="white"/>
<path d="M37.5 257.586H25V271.897H37.5V257.586Z" fill="white"/>
<path d="M50 257.586H37.5V271.897H50V257.586Z" fill="white"/>
<path d="M62.5 257.586H50V271.897H62.5V257.586Z" fill="white"/>
<path d="M75 257.586H62.5V271.897H75V257.586Z" fill="white"/>
<path d="M437.5 257.586H425V271.897H437.5V257.586Z" fill="white"/>
<path d="M450 257.586H437.5V271.897H450V257.586Z" fill="white"/>
<path d="M462.5 257.586H450V271.897H462.5V257.586Z" fill="white"/>
<path d="M475 257.586H462.5V271.897H475V257.586Z" fill="white"/>
<path d="M487.5 257.586H475V271.897H487.5V257.586Z" fill="white"/>
<path d="M500 257.586H487.5V271.897H500V257.586Z" fill="white"/>
<path d="M12.5 271.897H0V286.207H12.5V271.897Z" fill="white"/>
<path d="M25 271.897H12.5V286.207H25V271.897Z" fill="white"/>
<path d="M37.5 271.897H25V286.207H37.5V271.897Z" fill="white"/>
<path d="M50 271.897H37.5V286.207H50V271.897Z" fill="white"/>
<path d="M62.5 271.897H50V286.207H62.5V271.897Z" fill="white"/>
<path d="M75 271.897H62.5V286.207H75V271.897Z" fill="white"/>
<path d="M437.5 271.897H425V286.207H437.5V271.897Z" fill="white"/>
<path d="M450 271.897H437.5V286.207H450V271.897Z" fill="white"/>
<path d="M462.5 271.897H450V286.207H462.5V271.897Z" fill="white"/>
<path d="M475 271.897H462.5V286.207H475V271.897Z" fill="white"/>
<path d="M487.5 271.897H475V286.207H487.5V271.897Z" fill="white"/>
<path d="M500 271.897H487.5V286.207H500V271.897Z" fill="white"/>
<path d="M12.5 286.207H0V300.517H12.5V286.207Z" fill="white"/>
<path d="M25 286.207H12.5V300.517H25V286.207Z" fill="white"/>
<path d="M37.5 286.207H25V300.517H37.5V286.207Z" fill="white"/>
<path d="M50 286.207H37.5V300.517H50V286.207Z" fill="white"/>
<path d="M62.5 286.207H50V300.517H62.5V286.207Z" fill="white"/>
<path d="M75 286.207H62.5V300.517H75V286.207Z" fill="white"/>
<path d="M437.5 286.207H425V300.517H437.5V286.207Z" fill="white"/>
<path d="M450 286.207H437.5V300.517H450V286.207Z" fill="white"/>
<path d="M462.5 286.207H450V300.517H462.5V286.207Z" fill="white"/>
<path d="M475 286.207H462.5V300.517H475V286.207Z" fill="white"/>
<path d="M487.5 286.207H475V300.517H487.5V286.207Z" fill="white"/>
<path d="M500 286.207H487.5V300.517H500V286.207Z" fill="white"/>
<path d="M12.5 300.517H0V314.828H12.5V300.517Z" fill="white"/>
<path d="M25 300.517H12.5V314.828H25V300.517Z" fill="white"/>
<path d="M37.5 300.517H25V314.828H37.5V300.517Z" fill="white"/>
<path d="M50 300.517H37.5V314.828H50V300.517Z" fill="white"/>
<path d="M62.5 300.517H50V314.828H62.5V300.517Z" fill="white"/>
<path d="M75 300.517H62.5V314.828H75V300.517Z" fill="white"/>
<path d="M437.5 300.517H425V314.828H437.5V300.517Z" fill="white"/>
<path d="M450 300.517H437.5V314.828H450V300.517Z" fill="white"/>
<path d="M462.5 300.517H450V314.828H462.5V300.517Z" fill="white"/>
<path d="M475 300.517H462.5V314.828H475V300.517Z" fill="white"/>
<path d="M487.5 300.517H475V314.828H487.5V300.517Z" fill="white"/>
<path d="M500 300.517H487.5V314.828H500V300.517Z" fill="white"/>
<path d="M12.5 314.828H0V329.138H12.5V314.828Z" fill="white"/>
<path d="M25 314.828H12.5V329.138H25V314.828Z" fill="white"/>
<path d="M37.5 314.828H25V329.138H37.5V314.828Z" fill="white"/>
<path d="M50 314.828H37.5V329.138H50V314.828Z" fill="white"/>
<path d="M62.5 314.828H50V329.138H62.5V314.828Z" fill="white"/>
<path d="M75 314.828H62.5V329.138H75V314.828Z" fill="white"/>
<path d="M437.5 314.828H425V329.138H437.5V314.828Z" fill="white"/>
<path d="M450 314.828H437.5V329.138H450V314.828Z" fill="white"/>
<path d="M462.5 314.828H450V329.138H462.5V314.828Z" fill="white"/>
<path d="M475 314.828H462.5V329.138H475V314.828Z" fill="white"/>
<path d="M487.5 314.828H475V329.138H487.5V314.828Z" fill="white"/>
<path d="M500 314.828H487.5V329.138H500V314.828Z" fill="white"/>
<path d="M12.5 329.138H0V343.448H12.5V329.138Z" fill="white"/>
<path d="M25 329.138H12.5V343.448H25V329.138Z" fill="white"/>
<path d="M37.5 329.138H25V343.448H37.5V329.138Z" fill="white"/>
<path d="M50 329.138H37.5V343.448H50V329.138Z" fill="white"/>
<path d="M62.5 329.138H50V343.448H62.5V329.138Z" fill="white"/>
<path d="M75 329.138H62.5V343.448H75V329.138Z" fill="white"/>
<path d="M437.5 329.138H425V343.448H437.5V329.138Z" fill="white"/>
<path d="M450 329.138H437.5V343.448H450V329.138Z" fill="white"/>
<path d="M462.5 329.138H450V343.448H462.5V329.138Z" fill="white"/>
<path d="M475 329.138H462.5V343.448H475V329.138Z" fill="white"/>
<path d="M487.5 329.138H475V343.448H487.5V329.138Z" fill="white"/>
<path d="M500 329.138H487.5V343.448H500V329.138Z" fill="white"/>
<path d="M12.5 343.448H0V357.759H12.5V343.448Z" fill="white"/>
<path d="M25 343.448H12.5V357.759H25V343.448Z" fill="white"/>
<path d="M37.5 343.448H25V357.759H37.5V343.448Z" fill="white"/>
<path d="M50 343.448H37.5V357.759H50V343.448Z" fill="white"/>
<path d="M62.5 343.448H50V357.759H62.5V343.448Z" fill="white"/>
<path d="M75 343.448H62.5V357.759H75V343.448Z" fill="white"/>
<path d="M437.5 343.448H425V357.759H437.5V343.448Z" fill="white"/>
<path d="M450 343.448H437.5V357.759H450V343.448Z" fill="white"/>
<path d="M462.5 343.448H450V357.759H462.5V343.448Z" fill="white"/>
<path d="M475 343.448H462.5V357.759H475V343.448Z" fill="white"/>
<path d="M487.5 343.448H475V357.759H487.5V343.448Z" fill="white"/>
<path d="M500 343.448H487.5V357.759H500V343.448Z" fill="white"/>
<path d="M12.5 357.759H0V372.069H12.5V357.759Z" fill="white"/>
<path d="M25 357.759H12.5V372.069H25V357.759Z" fill="white"/>
<path d="M37.5 357.759H25V372.069H37.5V357.759Z" fill="white"/>
<path d="M50 357.759H37.5V372.069H50V357.759Z" fill="white"/>
<path d="M62.5 357.759H50V372.069H62.5V357.759Z" fill="white"/>
<path d="M75 357.759H62.5V372.069H75V357.759Z" fill="white"/>
<path d="M437.5 357.759H425V372.069H437.5V357.759Z" fill="white"/>
<path d="M450 357.759H437.5V372.069H450V357.759Z" fill="white"/>
<path d="M462.5 357.759H450V372.069H462.5V357.759Z" fill="white"/>
<path d="M475 357.759H462.5V372.069H475V357.759Z" fill="white"/>
<path d="M487.5 357.759H475V372.069H487.5V357.759Z" fill="white"/>
<path d="M500 357.759H487.5V372.069H500V357.759Z" fill="white"/>
<path d="M12.5 372.069H0V386.379H12.5V372.069Z" fill="white"/>
<path d="M25 372.069H12.5V386.379H25V372.069Z" fill="white"/>
<path d="M37.5 372.069H25V386.379H37.5V372.069Z" fill="white"/>
<path d="M50 372.069H37.5V386.379H50V372.069Z" fill="white"/>
<path d="M62.5 372.069H50V386.379H62.5V372.069Z" fill="white"/>
<path d="M75 372.069H62.5V386.379H75V372.069Z" fill="white"/>
<path d="M437.5 372.069H425V386.379H437.5V372.069Z" fill="white"/>
<path d="M450 372.069H437.5V386.379H450V372.069Z" fill="white"/>
<path d="M462.5 372.069H450V386.379H462.5V372.069Z" fill="white"/>
<path d="M475 372.069H462.5V386.379H475V372.069Z" fill="white"/>
<path d="M487.5 372.069H475V386.379H487.5V372.069Z" fill="white"/>
<path d="M500 372.069H487.5V386.379H500V372.069Z" fill="white"/>
<path d="M12.5 386.379H0V400.69H12.5V386.379Z" fill="white"/>
<path d="M25 386.379H12.5V400.69H25V386.379Z" fill="white"/>
<path d="M37.5 386.379H25V400.69H37.5V386.379Z" fill="white"/>
<path d="M50 386.379H37.5V400.69H50V386.379Z" fill="white"/>
<path d="M62.5 386.379H50V400.69H62.5V386.379Z" fill="white"/>
<path d="M75 386.379H62.5V400.69H75V386.379Z" fill="white"/>
<path d="M437.5 386.379H425V400.69H437.5V386.379Z" fill="white"/>
<path d="M450 386.379H437.5V400.69H450V386.379Z" fill="white"/>
<path d="M462.5 386.379H450V400.69H462.5V386.379Z" fill="white"/>
<path d="M475 386.379H462.5V400.69H475V386.379Z" fill="white"/>
<path d="M487.5 386.379H475V400.69H487.5V386.379Z" fill="white"/>
<path d="M500 386.379H487.5V400.69H500V386.379Z" fill="white"/>
<path d="M12.5 400.69H0V415H12.5V400.69Z" fill="white"/>
<path d="M25 400.69H12.5V415H25V400.69Z" fill="white"/>
<path d="M37.5 400.69H25V415H37.5V400.69Z" fill="white"/>
<path d="M50 400.69H37.5V415H50V400.69Z" fill="white"/>
<path d="M62.5 400.69H50V415H62.5V400.69Z" fill="white"/>
<path d="M75 400.69H62.5V415H75V400.69Z" fill="white"/>
<path d="M437.5 400.69H425V415H437.5V400.69Z" fill="white"/>
<path d="M450 400.69H437.5V415H450V400.69Z" fill="white"/>
<path d="M462.5 400.69H450V415H462.5V400.69Z" fill="white"/>
<path d="M475 400.69H462.5V415H475V400.69Z" fill="white"/>
<path d="M487.5 400.69H475V415H487.5V400.69Z" fill="white"/>
<path d="M500 400.69H487.5V415H500V400.69Z" fill="white"/>
<path d="M12.5 415H0V429.31H12.5V415Z" fill="white"/>
<path d="M25 415H12.5V429.31H25V415Z" fill="white"/>
<path d="M37.5 415H25V429.31H37.5V415Z" fill="white"/>
<path d="M50 415H37.5V429.31H50V415Z" fill="white"/>
<path d="M62.5 415H50V429.31H62.5V415Z" fill="white"/>
<path d="M75 415H62.5V429.31H75V415Z" fill="white"/>
<path d="M437.5 415H425V429.31H437.5V415Z" fill="white"/>
<path d="M450 415H437.5V429.31H450V415Z" fill="white"/>
<path d="M462.5 415H450V429.31H462.5V415Z" fill="white"/>
<path d="M475 415H462.5V429.31H475V415Z" fill="white"/>
<path d="M487.5 415H475V429.31H487.5V415Z" fill="white"/>
<path d="M500 415H487.5V429.31H500V415Z" fill="white"/>
<path d="M12.5 429.31H0V443.621H12.5V429.31Z" fill="white"/>
<path d="M25 429.31H12.5V443.621H25V429.31Z" fill="white"/>
<path d="M37.5 429.31H25V443.621H37.5V429.31Z" fill="white"/>
<path d="M50 429.31H37.5V443.621H50V429.31Z" fill="white"/>
<path d="M62.5 429.31H50V443.621H62.5V429.31Z" fill="white"/>
<path d="M75 429.31H62.5V443.621H75V429.31Z" fill="white"/>
<path d="M87.5 429.31H75V443.621H87.5V429.31Z" fill="white"/>
<path d="M425 429.31H412.5V443.621H425V429.31Z" fill="white"/>
<path d="M437.5 429.31H425V443.621H437.5V429.31Z" fill="white"/>
<path d="M450 429.31H437.5V443.621H450V429.31Z" fill="white"/>
<path d="M462.5 429.31H450V443.621H462.5V429.31Z" fill="white"/>
<path d="M475 429.31H462.5V443.621H475V429.31Z" fill="white"/>
<path d="M487.5 429.31H475V443.621H487.5V429.31Z" fill="white"/>
<path d="M500 429.31H487.5V443.621H500V429.31Z" fill="white"/>
<path d="M12.5 443.621H0V457.931H12.5V443.621Z" fill="white"/>
<path d="M25 443.621H12.5V457.931H25V443.621Z" fill="white"/>
<path d="M37.5 443.621H25V457.931H37.5V443.621Z" fill="white"/>
<path d="M50 443.621H37.5V457.931H50V443.621Z" fill="white"/>
<path d="M62.5 443.621H50V457.931H62.5V443.621Z" fill="white"/>
<path d="M75 443.621H62.5V457.931H75V443.621Z" fill="white"/>
<path d="M87.5 443.621H75V457.931H87.5V443.621Z" fill="white"/>
<path d="M425 443.621H412.5V457.931H425V443.621Z" fill="white"/>
<path d="M437.5 443.621H425V457.931H437.5V443.621Z" fill="white"/>
<path d="M450 443.621H437.5V457.931H450V443.621Z" fill="white"/>
<path d="M462.5 443.621H450V457.931H462.5V443.621Z" fill="white"/>
<path d="M475 443.621H462.5V457.931H475V443.621Z" fill="white"/>
<path d="M487.5 443.621H475V457.931H487.5V443.621Z" fill="white"/>
<path d="M500 443.621H487.5V457.931H500V443.621Z" fill="white"/>
<path d="M12.5 457.931H0V472.241H12.5V457.931Z" fill="white"/>
<path d="M25 457.931H12.5V472.241H25V457.931Z" fill="white"/>
<path d="M37.5 457.931H25V472.241H37.5V457.931Z" fill="white"/>
<path d="M50 457.931H37.5V472.241H50V457.931Z" fill="white"/>
<path d="M62.5 457.931H50V472.241H62.5V457.931Z" fill="white"/>
<path d="M75 457.931H62.5V472.241H75V457.931Z" fill="white"/>
<path d="M87.5 457.931H75V472.241H87.5V457.931Z" fill="white"/>
<path d="M425 457.931H412.5V472.241H425V457.931Z" fill="white"/>
<path d="M437.5 457.931H425V472.241H437.5V457.931Z" fill="white"/>
<path d="M450 457.931H437.5V472.241H450V457.931Z" fill="white"/>
<path d="M462.5 457.931H450V472.241H462.5V457.931Z" fill="white"/>
<path d="M475 457.931H462.5V472.241H475V457.931Z" fill="white"/>
<path d="M487.5 457.931H475V472.241H487.5V457.931Z" fill="white"/>
<path d="M500 457.931H487.5V472.241H500V457.931Z" fill="white"/>
<path d="M12.5 472.241H0V486.552H12.5V472.241Z" fill="white"/>
<path d="M25 472.241H12.5V486.552H25V472.241Z" fill="white"/>
<path d="M37.5 472.241H25V486.552H37.5V472.241Z" fill="white"/>
<path d="M50 472.241H37.5V486.552H50V472.241Z" fill="white"/>
<path d="M62.5 472.241H50V486.552H62.5V472.241Z" fill="white"/>
<path d="M75 472.241H62.5V486.552H75V472.241Z" fill="white"/>
<path d="M87.5 472.241H75V486.552H87.5V472.241Z" fill="white"/>
<path d="M100 472.241H87.5V486.552H100V472.241Z" fill="white"/>
<path d="M412.5 472.241H400V486.552H412.5V472.241Z" fill="white"/>
<path d="M425 472.241H412.5V486.552H425V472.241Z" fill="white"/>
<path d="M437.5 472.241H425V486.552H437.5V472.241Z" fill="white"/>
<path d="M450 472.241H437.5V486.552H450V472.241Z" fill="white"/>
<path d="M462.5 472.241H450V486.552H462.5V472.241Z" fill="white"/>
<path d="M475 472.241H462.5V486.552H475V472.241Z" fill="white"/>
<path d="M487.5 472.241H475V486.552H487.5V472.241Z" fill="white"/>
<path d="M500 472.241H487.5V486.552H500V472.241Z" fill="white"/>
<path d="M12.5 486.552H0V500.862H12.5V486.552Z" fill="white"/>
<path d="M25 486.552H12.5V500.862H25V486.552Z" fill="white"/>
<path d="M37.5 486.552H25V500.862H37.5V486.552Z" fill="white"/>
<path d="M50 486.552H37.5V500.862H50V486.552Z" fill="white"/>
<path d="M62.5 486.552H50V500.862H62.5V486.552Z" fill="white"/>
<path d="M75 486.552H62.5V500.862H75V486.552Z" fill="white"/>
<path d="M87.5 486.552H75V500.862H87.5V486.552Z" fill="white"/>
<path d="M100 486.552H87.5V500.862H100V486.552Z" fill="white"/>
<path d="M412.5 486.552H400V500.862H412.5V486.552Z" fill="white"/>
<path d="M425 486.552H412.5V500.862H425V486.552Z" fill="white"/>
<path d="M437.5 486.552H425V500.862H437.5V486.552Z" fill="white"/>
<path d="M450 486.552H437.5V500.862H450V486.552Z" fill="white"/>
<path d="M462.5 486.552H450V500.862H462.5V486.552Z" fill="white"/>
<path d="M475 486.552H462.5V500.862H475V486.552Z" fill="white"/>
<path d="M487.5 486.552H475V500.862H487.5V486.552Z" fill="white"/>
<path d="M500 486.552H487.5V500.862H500V486.552Z" fill="white"/>
<path d="M25 500.862H12.5V515.172H25V500.862Z" fill="white"/>
<path d="M37.5 500.862H25V515.172H37.5V500.862Z" fill="white"/>
<path d="M50 500.862H37.5V515.172H50V500.862Z" fill="white"/>
<path d="M62.5 500.862H50V515.172H62.5V500.862Z" fill="white"/>
<path d="M75 500.862H62.5V515.172H75V500.862Z" fill="white"/>
<path d="M87.5 500.862H75V515.172H87.5V500.862Z" fill="white"/>
<path d="M100 500.862H87.5V515.172H100V500.862Z" fill="white"/>
<path d="M112.5 500.862H100V515.172H112.5V500.862Z" fill="white"/>
<path d="M400 500.862H387.5V515.172H400V500.862Z" fill="white"/>
<path d="M412.5 500.862H400V515.172H412.5V500.862Z" fill="white"/>
<path d="M425 500.862H412.5V515.172H425V500.862Z" fill="white"/>
<path d="M437.5 500.862H425V515.172H437.5V500.862Z" fill="white"/>
<path d="M450 500.862H437.5V515.172H450V500.862Z" fill="white"/>
<path d="M462.5 500.862H450V515.172H462.5V500.862Z" fill="white"/>
<path d="M475 500.862H462.5V515.172H475V500.862Z" fill="white"/>
<path d="M487.5 500.862H475V515.172H487.5V500.862Z" fill="white"/>
<path d="M25 515.172H12.5V529.483H25V515.172Z" fill="white"/>
<path d="M37.5 515.172H25V529.483H37.5V515.172Z" fill="white"/>
<path d="M50 515.172H37.5V529.483H50V515.172Z" fill="white"/>
<path d="M62.5 515.172H50V529.483H62.5V515.172Z" fill="white"/>
<path d="M75 515.172H62.5V529.483H75V515.172Z" fill="white"/>
<path d="M87.5 515.172H75V529.483H87.5V515.172Z" fill="white"/>
<path d="M100 515.172H87.5V529.483H100V515.172Z" fill="white"/>
<path d="M112.5 515.172H100V529.483H112.5V515.172Z" fill="white"/>
<path d="M125 515.172H112.5V529.483H125V515.172Z" fill="white"/>
<path d="M137.5 515.172H125V529.483H137.5V515.172Z" fill="white"/>
<path d="M150 515.172H137.5V529.483H150V515.172Z" fill="white"/>
<path d="M162.5 515.172H150V529.483H162.5V515.172Z" fill="white"/>
<path d="M175 515.172H162.5V529.483H175V515.172Z" fill="white"/>
<path d="M187.5 515.172H175V529.483H187.5V515.172Z" fill="white"/>
<path d="M200 515.172H187.5V529.483H200V515.172Z" fill="white"/>
<path d="M212.5 515.172H200V529.483H212.5V515.172Z" fill="white"/>
<path d="M225 515.172H212.5V529.483H225V515.172Z" fill="white"/>
<path d="M237.5 515.172H225V529.483H237.5V515.172Z" fill="white"/>
<path d="M250 515.172H237.5V529.483H250V515.172Z" fill="white"/>
<path d="M262.5 515.172H250V529.483H262.5V515.172Z" fill="white"/>
<path d="M275 515.172H262.5V529.483H275V515.172Z" fill="white"/>
<path d="M287.5 515.172H275V529.483H287.5V515.172Z" fill="white"/>
<path d="M300 515.172H287.5V529.483H300V515.172Z" fill="white"/>
<path d="M312.5 515.172H300V529.483H312.5V515.172Z" fill="white"/>
<path d="M325 515.172H312.5V529.483H325V515.172Z" fill="white"/>
<path d="M337.5 515.172H325V529.483H337.5V515.172Z" fill="white"/>
<path d="M350 515.172H337.5V529.483H350V515.172Z" fill="white"/>
<path d="M362.5 515.172H350V529.483H362.5V515.172Z" fill="white"/>
<path d="M375 515.172H362.5V529.483H375V515.172Z" fill="white"/>
<path d="M387.5 515.172H375V529.483H387.5V515.172Z" fill="white"/>
<path d="M400 515.172H387.5V529.483H400V515.172Z" fill="white"/>
<path d="M412.5 515.172H400V529.483H412.5V515.172Z" fill="white"/>
<path d="M425 515.172H412.5V529.483H425V515.172Z" fill="white"/>
<path d="M437.5 515.172H425V529.483H437.5V515.172Z" fill="white"/>
<path d="M450 515.172H437.5V529.483H450V515.172Z" fill="white"/>
<path d="M462.5 515.172H450V529.483H462.5V515.172Z" fill="white"/>
<path d="M475 515.172H462.5V529.483H475V515.172Z" fill="white"/>
<path d="M487.5 515.172H475V529.483H487.5V515.172Z" fill="white"/>
<path d="M25 529.483H12.5V543.793H25V529.483Z" fill="white"/>
<path d="M37.5 529.483H25V543.793H37.5V529.483Z" fill="white"/>
<path d="M50 529.483H37.5V543.793H50V529.483Z" fill="white"/>
<path d="M62.5 529.483H50V543.793H62.5V529.483Z" fill="white"/>
<path d="M75 529.483H62.5V543.793H75V529.483Z" fill="white"/>
<path d="M87.5 529.483H75V543.793H87.5V529.483Z" fill="white"/>
<path d="M100 529.483H87.5V543.793H100V529.483Z" fill="white"/>
<path d="M112.5 529.483H100V543.793H112.5V529.483Z" fill="white"/>
<path d="M125 529.483H112.5V543.793H125V529.483Z" fill="white"/>
<path d="M137.5 529.483H125V543.793H137.5V529.483Z" fill="white"/>
<path d="M150 529.483H137.5V543.793H150V529.483Z" fill="white"/>
<path d="M162.5 529.483H150V543.793H162.5V529.483Z" fill="white"/>
<path d="M175 529.483H162.5V543.793H175V529.483Z" fill="white"/>
<path d="M187.5 529.483H175V543.793H187.5V529.483Z" fill="white"/>
<path d="M200 529.483H187.5V543.793H200V529.483Z" fill="white"/>
<path d="M212.5 529.483H200V543.793H212.5V529.483Z" fill="white"/>
<path d="M225 529.483H212.5V543.793H225V529.483Z" fill="white"/>
<path d="M237.5 529.483H225V543.793H237.5V529.483Z" fill="white"/>
<path d="M250 529.483H237.5V543.793H250V529.483Z" fill="white"/>
<path d="M262.5 529.483H250V543.793H262.5V529.483Z" fill="white"/>
<path d="M275 529.483H262.5V543.793H275V529.483Z" fill="white"/>
<path d="M287.5 529.483H275V543.793H287.5V529.483Z" fill="white"/>
<path d="M300 529.483H287.5V543.793H300V529.483Z" fill="white"/>
<path d="M312.5 529.483H300V543.793H312.5V529.483Z" fill="white"/>
<path d="M325 529.483H312.5V543.793H325V529.483Z" fill="white"/>
<path d="M337.5 529.483H325V543.793H337.5V529.483Z" fill="white"/>
<path d="M350 529.483H337.5V543.793H350V529.483Z" fill="white"/>
<path d="M362.5 529.483H350V543.793H362.5V529.483Z" fill="white"/>
<path d="M375 529.483H362.5V543.793H375V529.483Z" fill="white"/>
<path d="M387.5 529.483H375V543.793H387.5V529.483Z" fill="white"/>
<path d="M400 529.483H387.5V543.793H400V529.483Z" fill="white"/>
<path d="M412.5 529.483H400V543.793H412.5V529.483Z" fill="white"/>
<path d="M425 529.483H412.5V543.793H425V529.483Z" fill="white"/>
<path d="M437.5 529.483H425V543.793H437.5V529.483Z" fill="white"/>
<path d="M450 529.483H437.5V543.793H450V529.483Z" fill="white"/>
<path d="M462.5 529.483H450V543.793H462.5V529.483Z" fill="white"/>
<path d="M475 529.483H462.5V543.793H475V529.483Z" fill="white"/>
<path d="M487.5 529.483H475V543.793H487.5V529.483Z" fill="white"/>
<path d="M37.5 543.793H25V558.103H37.5V543.793Z" fill="white"/>
<path d="M50 543.793H37.5V558.103H50V543.793Z" fill="white"/>
<path d="M62.5 543.793H50V558.103H62.5V543.793Z" fill="white"/>
<path d="M75 543.793H62.5V558.103H75V543.793Z" fill="white"/>
<path d="M87.5 543.793H75V558.103H87.5V543.793Z" fill="white"/>
<path d="M100 543.793H87.5V558.103H100V543.793Z" fill="white"/>
<path d="M112.5 543.793H100V558.103H112.5V543.793Z" fill="white"/>
<path d="M125 543.793H112.5V558.103H125V543.793Z" fill="white"/>
<path d="M137.5 543.793H125V558.103H137.5V543.793Z" fill="white"/>
<path d="M150 543.793H137.5V558.103H150V543.793Z" fill="white"/>
<path d="M162.5 543.793H150V558.103H162.5V543.793Z" fill="white"/>
<path d="M175 543.793H162.5V558.103H175V543.793Z" fill="white"/>
<path d="M187.5 543.793H175V558.103H187.5V543.793Z" fill="white"/>
<path d="M200 543.793H187.5V558.103H200V543.793Z" fill="white"/>
<path d="M212.5 543.793H200V558.103H212.5V543.793Z" fill="white"/>
<path d="M225 543.793H212.5V558.103H225V543.793Z" fill="white"/>
<path d="M237.5 543.793H225V558.103H237.5V543.793Z" fill="white"/>
<path d="M250 543.793H237.5V558.103H250V543.793Z" fill="white"/>
<path d="M262.5 543.793H250V558.103H262.5V543.793Z" fill="white"/>
<path d="M275 543.793H262.5V558.103H275V543.793Z" fill="white"/>
<path d="M287.5 543.793H275V558.103H287.5V543.793Z" fill="white"/>
<path d="M300 543.793H287.5V558.103H300V543.793Z" fill="white"/>
<path d="M312.5 543.793H300V558.103H312.5V543.793Z" fill="white"/>
<path d="M325 543.793H312.5V558.103H325V543.793Z" fill="white"/>
<path d="M337.5 543.793H325V558.103H337.5V543.793Z" fill="white"/>
<path d="M350 543.793H337.5V558.103H350V543.793Z" fill="white"/>
<path d="M362.5 543.793H350V558.103H362.5V543.793Z" fill="white"/>
<path d="M375 543.793H362.5V558.103H375V543.793Z" fill="white"/>
<path d="M387.5 543.793H375V558.103H387.5V543.793Z" fill="white"/>
<path d="M400 543.793H387.5V558.103H400V543.793Z" fill="white"/>
<path d="M412.5 543.793H400V558.103H412.5V543.793Z" fill="white"/>
<path d="M425 543.793H412.5V558.103H425V543.793Z" fill="white"/>
<path d="M437.5 543.793H425V558.103H437.5V543.793Z" fill="white"/>
<path d="M450 543.793H437.5V558.103H450V543.793Z" fill="white"/>
<path d="M462.5 543.793H450V558.103H462.5V543.793Z" fill="white"/>
<path d="M475 543.793H462.5V558.103H475V543.793Z" fill="white"/>
<path d="M37.5 558.103H25V572.414H37.5V558.103Z" fill="white"/>
<path d="M50 558.103H37.5V572.414H50V558.103Z" fill="white"/>
<path d="M62.5 558.103H50V572.414H62.5V558.103Z" fill="white"/>
<path d="M75 558.103H62.5V572.414H75V558.103Z" fill="white"/>
<path d="M87.5 558.103H75V572.414H87.5V558.103Z" fill="white"/>
<path d="M100 558.103H87.5V572.414H100V558.103Z" fill="white"/>
<path d="M112.5 558.103H100V572.414H112.5V558.103Z" fill="white"/>
<path d="M125 558.103H112.5V572.414H125V558.103Z" fill="white"/>
<path d="M137.5 558.103H125V572.414H137.5V558.103Z" fill="white"/>
<path d="M150 558.103H137.5V572.414H150V558.103Z" fill="white"/>
<path d="M162.5 558.103H150V572.414H162.5V558.103Z" fill="white"/>
<path d="M175 558.103H162.5V572.414H175V558.103Z" fill="white"/>
<path d="M187.5 558.103H175V572.414H187.5V558.103Z" fill="white"/>
<path d="M200 558.103H187.5V572.414H200V558.103Z" fill="white"/>
<path d="M212.5 558.103H200V572.414H212.5V558.103Z" fill="white"/>
<path d="M225 558.103H212.5V572.414H225V558.103Z" fill="white"/>
<path d="M237.5 558.103H225V572.414H237.5V558.103Z" fill="white"/>
<path d="M250 558.103H237.5V572.414H250V558.103Z" fill="white"/>
<path d="M262.5 558.103H250V572.414H262.5V558.103Z" fill="white"/>
<path d="M275 558.103H262.5V572.414H275V558.103Z" fill="white"/>
<path d="M287.5 558.103H275V572.414H287.5V558.103Z" fill="white"/>
<path d="M300 558.103H287.5V572.414H300V558.103Z" fill="white"/>
<path d="M312.5 558.103H300V572.414H312.5V558.103Z" fill="white"/>
<path d="M325 558.103H312.5V572.414H325V558.103Z" fill="white"/>
<path d="M337.5 558.103H325V572.414H337.5V558.103Z" fill="white"/>
<path d="M350 558.103H337.5V572.414H350V558.103Z" fill="white"/>
<path d="M362.5 558.103H350V572.414H362.5V558.103Z" fill="white"/>
<path d="M375 558.103H362.5V572.414H375V558.103Z" fill="white"/>
<path d="M387.5 558.103H375V572.414H387.5V558.103Z" fill="white"/>
<path d="M400 558.103H387.5V572.414H400V558.103Z" fill="white"/>
<path d="M412.5 558.103H400V572.414H412.5V558.103Z" fill="white"/>
<path d="M425 558.103H412.5V572.414H425V558.103Z" fill="white"/>
<path d="M437.5 558.103H425V572.414H437.5V558.103Z" fill="white"/>
<path d="M450 558.103H437.5V572.414H450V558.103Z" fill="white"/>
<path d="M462.5 558.103H450V572.414H462.5V558.103Z" fill="white"/>
<path d="M475 558.103H462.5V572.414H475V558.103Z" fill="white"/>
<path d="M50 572.414H37.5V586.724H50V572.414Z" fill="white"/>
<path d="M62.5 572.414H50V586.724H62.5V572.414Z" fill="white"/>
<path d="M75 572.414H62.5V586.724H75V572.414Z" fill="white"/>
<path d="M87.5 572.414H75V586.724H87.5V572.414Z" fill="white"/>
<path d="M100 572.414H87.5V586.724H100V572.414Z" fill="white"/>
<path d="M112.5 572.414H100V586.724H112.5V572.414Z" fill="white"/>
<path d="M125 572.414H112.5V586.724H125V572.414Z" fill="white"/>
<path d="M137.5 572.414H125V586.724H137.5V572.414Z" fill="white"/>
<path d="M150 572.414H137.5V586.724H150V572.414Z" fill="white"/>
<path d="M162.5 572.414H150V586.724H162.5V572.414Z" fill="white"/>
<path d="M175 572.414H162.5V586.724H175V572.414Z" fill="white"/>
<path d="M187.5 572.414H175V586.724H187.5V572.414Z" fill="white"/>
<path d="M200 572.414H187.5V586.724H200V572.414Z" fill="white"/>
<path d="M212.5 572.414H200V586.724H212.5V572.414Z" fill="white"/>
<path d="M225 572.414H212.5V586.724H225V572.414Z" fill="white"/>
<path d="M237.5 572.414H225V586.724H237.5V572.414Z" fill="white"/>
<path d="M250 572.414H237.5V586.724H250V572.414Z" fill="white"/>
<path d="M262.5 572.414H250V586.724H262.5V572.414Z" fill="white"/>
<path d="M275 572.414H262.5V586.724H275V572.414Z" fill="white"/>
<path d="M287.5 572.414H275V586.724H287.5V572.414Z" fill="white"/>
<path d="M300 572.414H287.5V586.724H300V572.414Z" fill="white"/>
<path d="M312.5 572.414H300V586.724H312.5V572.414Z" fill="white"/>
<path d="M325 572.414H312.5V586.724H325V572.414Z" fill="white"/>
<path d="M337.5 572.414H325V586.724H337.5V572.414Z" fill="white"/>
<path d="M350 572.414H337.5V586.724H350V572.414Z" fill="white"/>
<path d="M362.5 572.414H350V586.724H362.5V572.414Z" fill="white"/>
<path d="M375 572.414H362.5V586.724H375V572.414Z" fill="white"/>
<path d="M387.5 572.414H375V586.724H387.5V572.414Z" fill="white"/>
<path d="M400 572.414H387.5V586.724H400V572.414Z" fill="white"/>
<path d="M412.5 572.414H400V586.724H412.5V572.414Z" fill="white"/>
<path d="M425 572.414H412.5V586.724H425V572.414Z" fill="white"/>
<path d="M437.5 572.414H425V586.724H437.5V572.414Z" fill="white"/>
<path d="M450 572.414H437.5V586.724H450V572.414Z" fill="white"/>
<path d="M462.5 572.414H450V586.724H462.5V572.414Z" fill="white"/>
<path d="M62.5 586.724H50V601.034H62.5V586.724Z" fill="white"/>
<path d="M75 586.724H62.5V601.034H75V586.724Z" fill="white"/>
<path d="M87.5 586.724H75V601.034H87.5V586.724Z" fill="white"/>
<path d="M100 586.724H87.5V601.034H100V586.724Z" fill="white"/>
<path d="M112.5 586.724H100V601.034H112.5V586.724Z" fill="white"/>
<path d="M125 586.724H112.5V601.034H125V586.724Z" fill="white"/>
<path d="M137.5 586.724H125V601.034H137.5V586.724Z" fill="white"/>
<path d="M150 586.724H137.5V601.034H150V586.724Z" fill="white"/>
<path d="M162.5 586.724H150V601.034H162.5V586.724Z" fill="white"/>
<path d="M175 586.724H162.5V601.034H175V586.724Z" fill="white"/>
<path d="M187.5 586.724H175V601.034H187.5V586.724Z" fill="white"/>
<path d="M200 586.724H187.5V601.034H200V586.724Z" fill="white"/>
<path d="M212.5 586.724H200V601.034H212.5V586.724Z" fill="white"/>
<path d="M225 586.724H212.5V601.034H225V586.724Z" fill="white"/>
<path d="M237.5 586.724H225V601.034H237.5V586.724Z" fill="white"/>
<path d="M250 586.724H237.5V601.034H250V586.724Z" fill="white"/>
<path d="M262.5 586.724H250V601.034H262.5V586.724Z" fill="white"/>
<path d="M275 586.724H262.5V601.034H275V586.724Z" fill="white"/>
<path d="M287.5 586.724H275V601.034H287.5V586.724Z" fill="white"/>
<path d="M300 586.724H287.5V601.034H300V586.724Z" fill="white"/>
<path d="M312.5 586.724H300V601.034H312.5V586.724Z" fill="white"/>
<path d="M325 586.724H312.5V601.034H325V586.724Z" fill="white"/>
<path d="M337.5 586.724H325V601.034H337.5V586.724Z" fill="white"/>
<path d="M350 586.724H337.5V601.034H350V586.724Z" fill="white"/>
<path d="M362.5 586.724H350V601.034H362.5V586.724Z" fill="white"/>
<path d="M375 586.724H362.5V601.034H375V586.724Z" fill="white"/>
<path d="M387.5 586.724H375V601.034H387.5V586.724Z" fill="white"/>
<path d="M400 586.724H387.5V601.034H400V586.724Z" fill="white"/>
<path d="M412.5 586.724H400V601.034H412.5V586.724Z" fill="white"/>
<path d="M425 586.724H412.5V601.034H425V586.724Z" fill="white"/>
<path d="M437.5 586.724H425V601.034H437.5V586.724Z" fill="white"/>
<path d="M450 586.724H437.5V601.034H450V586.724Z" fill="white"/>
<path d="M75 601.034H62.5V615.345H75V601.034Z" fill="white"/>
<path d="M87.5 601.034H75V615.345H87.5V601.034Z" fill="white"/>
<path d="M100 601.034H87.5V615.345H100V601.034Z" fill="white"/>
<path d="M112.5 601.034H100V615.345H112.5V601.034Z" fill="white"/>
<path d="M125 601.034H112.5V615.345H125V601.034Z" fill="white"/>
<path d="M137.5 601.034H125V615.345H137.5V601.034Z" fill="white"/>
<path d="M150 601.034H137.5V615.345H150V601.034Z" fill="white"/>
<path d="M162.5 601.034H150V615.345H162.5V601.034Z" fill="white"/>
<path d="M175 601.034H162.5V615.345H175V601.034Z" fill="white"/>
<path d="M187.5 601.034H175V615.345H187.5V601.034Z" fill="white"/>
<path d="M200 601.034H187.5V615.345H200V601.034Z" fill="white"/>
<path d="M212.5 601.034H200V615.345H212.5V601.034Z" fill="white"/>
<path d="M225 601.034H212.5V615.345H225V601.034Z" fill="white"/>
<path d="M237.5 601.034H225V615.345H237.5V601.034Z" fill="white"/>
<path d="M250 601.034H237.5V615.345H250V601.034Z" fill="white"/>
<path d="M262.5 601.034H250V615.345H262.5V601.034Z" fill="white"/>
<path d="M275 601.034H262.5V615.345H275V601.034Z" fill="white"/>
<path d="M287.5 601.034H275V615.345H287.5V601.034Z" fill="white"/>
<path d="M300 601.034H287.5V615.345H300V601.034Z" fill="white"/>
<path d="M312.5 601.034H300V615.345H312.5V601.034Z" fill="white"/>
<path d="M325 601.034H312.5V615.345H325V601.034Z" fill="white"/>
<path d="M337.5 601.034H325V615.345H337.5V601.034Z" fill="white"/>
<path d="M350 601.034H337.5V615.345H350V601.034Z" fill="white"/>
<path d="M362.5 601.034H350V615.345H362.5V601.034Z" fill="white"/>
<path d="M375 601.034H362.5V615.345H375V601.034Z" fill="white"/>
<path d="M387.5 601.034H375V615.345H387.5V601.034Z" fill="white"/>
<path d="M400 601.034H387.5V615.345H400V601.034Z" fill="white"/>
<path d="M412.5 601.034H400V615.345H412.5V601.034Z" fill="white"/>
<path d="M425 601.034H412.5V615.345H425V601.034Z" fill="white"/>
<path d="M437.5 601.034H425V615.345H437.5V601.034Z" fill="white"/>
<path d="M87.5 615.345H75V629.655H87.5V615.345Z" fill="white"/>
<path d="M100 615.345H87.5V629.655H100V615.345Z" fill="white"/>
<path d="M112.5 615.345H100V629.655H112.5V615.345Z" fill="white"/>
<path d="M125 615.345H112.5V629.655H125V615.345Z" fill="white"/>
<path d="M137.5 615.345H125V629.655H137.5V615.345Z" fill="white"/>
<path d="M150 615.345H137.5V629.655H150V615.345Z" fill="white"/>
<path d="M162.5 615.345H150V629.655H162.5V615.345Z" fill="white"/>
<path d="M175 615.345H162.5V629.655H175V615.345Z" fill="white"/>
<path d="M187.5 615.345H175V629.655H187.5V615.345Z" fill="white"/>
<path d="M200 615.345H187.5V629.655H200V615.345Z" fill="white"/>
<path d="M212.5 615.345H200V629.655H212.5V615.345Z" fill="white"/>
<path d="M225 615.345H212.5V629.655H225V615.345Z" fill="white"/>
<path d="M237.5 615.345H225V629.655H237.5V615.345Z" fill="white"/>
<path d="M250 615.345H237.5V629.655H250V615.345Z" fill="white"/>
<path d="M262.5 615.345H250V629.655H262.5V615.345Z" fill="white"/>
<path d="M275 615.345H262.5V629.655H275V615.345Z" fill="white"/>
<path d="M287.5 615.345H275V629.655H287.5V615.345Z" fill="white"/>
<path d="M300 615.345H287.5V629.655H300V615.345Z" fill="white"/>
<path d="M312.5 615.345H300V629.655H312.5V615.345Z" fill="white"/>
<path d="M325 615.345H312.5V629.655H325V615.345Z" fill="white"/>
<path d="M337.5 615.345H325V629.655H337.5V615.345Z" fill="white"/>
<path d="M350 615.345H337.5V629.655H350V615.345Z" fill="white"/>
<path d="M362.5 615.345H350V629.655H362.5V615.345Z" fill="white"/>
<path d="M375 615.345H362.5V629.655H375V615.345Z" fill="white"/>
<path d="M387.5 615.345H375V629.655H387.5V615.345Z" fill="white"/>
<path d="M400 615.345H387.5V629.655H400V615.345Z" fill="white"/>
<path d="M412.5 615.345H400V629.655H412.5V615.345Z" fill="white"/>
<path d="M425 615.345H412.5V629.655H425V615.345Z" fill="white"/>
<path d="M100 629.655H87.5V643.965H100V629.655Z" fill="white"/>
<path d="M112.5 629.655H100V643.965H112.5V629.655Z" fill="white"/>
<path d="M125 629.655H112.5V643.965H125V629.655Z" fill="white"/>
<path d="M137.5 629.655H125V643.965H137.5V629.655Z" fill="white"/>
<path d="M150 629.655H137.5V643.965H150V629.655Z" fill="white"/>
<path d="M162.5 629.655H150V643.965H162.5V629.655Z" fill="white"/>
<path d="M175 629.655H162.5V643.965H175V629.655Z" fill="white"/>
<path d="M187.5 629.655H175V643.965H187.5V629.655Z" fill="white"/>
<path d="M200 629.655H187.5V643.965H200V629.655Z" fill="white"/>
<path d="M212.5 629.655H200V643.965H212.5V629.655Z" fill="white"/>
<path d="M225 629.655H212.5V643.965H225V629.655Z" fill="white"/>
<path d="M237.5 629.655H225V643.965H237.5V629.655Z" fill="white"/>
<path d="M250 629.655H237.5V643.965H250V629.655Z" fill="white"/>
<path d="M262.5 629.655H250V643.965H262.5V629.655Z" fill="white"/>
<path d="M275 629.655H262.5V643.965H275V629.655Z" fill="white"/>
<path d="M287.5 629.655H275V643.965H287.5V629.655Z" fill="white"/>
<path d="M300 629.655H287.5V643.965H300V629.655Z" fill="white"/>
<path d="M312.5 629.655H300V643.965H312.5V629.655Z" fill="white"/>
<path d="M325 629.655H312.5V643.965H325V629.655Z" fill="white"/>
<path d="M337.5 629.655H325V643.965H337.5V629.655Z" fill="white"/>
<path d="M350 629.655H337.5V643.965H350V629.655Z" fill="white"/>
<path d="M362.5 629.655H350V643.965H362.5V629.655Z" fill="white"/>
<path d="M375 629.655H362.5V643.965H375V629.655Z" fill="white"/>
<path d="M387.5 629.655H375V643.965H387.5V629.655Z" fill="white"/>
<path d="M400 629.655H387.5V643.965H400V629.655Z" fill="white"/>
<path d="M412.5 629.655H400V643.965H412.5V629.655Z" fill="white"/>
<path d="M112.5 643.966H100V658.276H112.5V643.966Z" fill="white"/>
<path d="M125 643.966H112.5V658.276H125V643.966Z" fill="white"/>
<path d="M137.5 643.966H125V658.276H137.5V643.966Z" fill="white"/>
<path d="M150 643.966H137.5V658.276H150V643.966Z" fill="white"/>
<path d="M162.5 643.966H150V658.276H162.5V643.966Z" fill="white"/>
<path d="M175 643.966H162.5V658.276H175V643.966Z" fill="white"/>
<path d="M187.5 643.966H175V658.276H187.5V643.966Z" fill="white"/>
<path d="M200 643.966H187.5V658.276H200V643.966Z" fill="white"/>
<path d="M212.5 643.966H200V658.276H212.5V643.966Z" fill="white"/>
<path d="M225 643.966H212.5V658.276H225V643.966Z" fill="white"/>
<path d="M237.5 643.966H225V658.276H237.5V643.966Z" fill="white"/>
<path d="M250 643.966H237.5V658.276H250V643.966Z" fill="white"/>
<path d="M262.5 643.966H250V658.276H262.5V643.966Z" fill="white"/>
<path d="M275 643.966H262.5V658.276H275V643.966Z" fill="white"/>
<path d="M287.5 643.966H275V658.276H287.5V643.966Z" fill="white"/>
<path d="M300 643.966H287.5V658.276H300V643.966Z" fill="white"/>
<path d="M312.5 643.966H300V658.276H312.5V643.966Z" fill="white"/>
<path d="M325 643.966H312.5V658.276H325V643.966Z" fill="white"/>
<path d="M337.5 643.966H325V658.276H337.5V643.966Z" fill="white"/>
<path d="M350 643.966H337.5V658.276H350V643.966Z" fill="white"/>
<path d="M362.5 643.966H350V658.276H362.5V643.966Z" fill="white"/>
<path d="M375 643.966H362.5V658.276H375V643.966Z" fill="white"/>
<path d="M387.5 643.966H375V658.276H387.5V643.966Z" fill="white"/>
<path d="M400 643.966H387.5V658.276H400V643.966Z" fill="white"/>
<path d="M137.5 658.276H125V672.586H137.5V658.276Z" fill="white"/>
<path d="M150 658.276H137.5V672.586H150V658.276Z" fill="white"/>
<path d="M162.5 658.276H150V672.586H162.5V658.276Z" fill="white"/>
<path d="M175 658.276H162.5V672.586H175V658.276Z" fill="white"/>
<path d="M187.5 658.276H175V672.586H187.5V658.276Z" fill="white"/>
<path d="M200 658.276H187.5V672.586H200V658.276Z" fill="white"/>
<path d="M212.5 658.276H200V672.586H212.5V658.276Z" fill="white"/>
<path d="M225 658.276H212.5V672.586H225V658.276Z" fill="white"/>
<path d="M237.5 658.276H225V672.586H237.5V658.276Z" fill="white"/>
<path d="M250 658.276H237.5V672.586H250V658.276Z" fill="white"/>
<path d="M262.5 658.276H250V672.586H262.5V658.276Z" fill="white"/>
<path d="M275 658.276H262.5V672.586H275V658.276Z" fill="white"/>
<path d="M287.5 658.276H275V672.586H287.5V658.276Z" fill="white"/>
<path d="M300 658.276H287.5V672.586H300V658.276Z" fill="white"/>
<path d="M312.5 658.276H300V672.586H312.5V658.276Z" fill="white"/>
<path d="M325 658.276H312.5V672.586H325V658.276Z" fill="white"/>
<path d="M337.5 658.276H325V672.586H337.5V658.276Z" fill="white"/>
<path d="M350 658.276H337.5V672.586H350V658.276Z" fill="white"/>
<path d="M362.5 658.276H350V672.586H362.5V658.276Z" fill="white"/>
<path d="M375 658.276H362.5V672.586H375V658.276Z" fill="white"/>
<path d="M162.5 672.586H150V686.897H162.5V672.586Z" fill="white"/>
<path d="M175 672.586H162.5V686.897H175V672.586Z" fill="white"/>
<path d="M187.5 672.586H175V686.897H187.5V672.586Z" fill="white"/>
<path d="M200 672.586H187.5V686.897H200V672.586Z" fill="white"/>
<path d="M212.5 672.586H200V686.897H212.5V672.586Z" fill="white"/>
<path d="M225 672.586H212.5V686.897H225V672.586Z" fill="white"/>
<path d="M237.5 672.586H225V686.897H237.5V672.586Z" fill="white"/>
<path d="M250 672.586H237.5V686.897H250V672.586Z" fill="white"/>
<path d="M262.5 672.586H250V686.897H262.5V672.586Z" fill="white"/>
<path d="M275 672.586H262.5V686.897H275V672.586Z" fill="white"/>
<path d="M287.5 672.586H275V686.897H287.5V672.586Z" fill="white"/>
<path d="M300 672.586H287.5V686.897H300V672.586Z" fill="white"/>
<path d="M312.5 672.586H300V686.897H312.5V672.586Z" fill="white"/>
<path d="M325 672.586H312.5V686.897H325V672.586Z" fill="white"/>
<path d="M337.5 672.586H325V686.897H337.5V672.586Z" fill="white"/>
<path d="M350 672.586H337.5V686.897H350V672.586Z" fill="white"/>
</svg>
